<svg width="31" height="31" viewBox="0 0 31 31" fill="none" xmlns="http://www.w3.org/2000/svg">
<path d="M29.25 22.265V26.39C29.2516 26.773 29.1731 27.152 29.0197 27.5029C28.8663 27.8537 28.6413 28.1687 28.3591 28.4276C28.077 28.6865 27.7438 28.8836 27.3811 29.0062C27.0183 29.1289 26.6339 29.1745 26.2525 29.14C22.0214 28.6803 17.9572 27.2345 14.3863 24.9188C11.064 22.8077 8.24737 19.991 6.13628 16.6688C3.8125 13.0817 2.36636 8.99763 1.91503 4.74751C1.88067 4.36728 1.92586 3.98406 2.04772 3.62224C2.16958 3.26043 2.36544 2.92796 2.62283 2.64599C2.88023 2.36402 3.19351 2.13874 3.54274 1.98448C3.89197 1.83022 4.2695 1.75037 4.65128 1.75001H8.77628C9.44358 1.74344 10.0905 1.97974 10.5965 2.41487C11.1024 2.84999 11.4329 3.45425 11.5263 4.11501C11.7004 5.4351 12.0233 6.73126 12.4888 7.97876C12.6738 8.47091 12.7138 9.00577 12.6042 9.51997C12.4945 10.0342 12.2397 10.5062 11.87 10.88L10.1238 12.6263C12.0812 16.0686 14.9314 18.9189 18.3738 20.8763L20.12 19.13C20.4939 18.7603 20.9659 18.5056 21.4801 18.3959C21.9943 18.2862 22.5291 18.3263 23.0213 18.5113C24.2688 18.9768 25.5649 19.2997 26.885 19.4738C27.553 19.568 28.163 19.9044 28.599 20.4191C29.0351 20.9337 29.2668 21.5907 29.25 22.265Z" stroke="#1F4451" stroke-width="2.5" stroke-linecap="round" stroke-linejoin="round"/>
</svg>
